<?xml version="1.0" encoding="utf-8"?>
<!-- Generator: Adobe Illustrator 16.0.0, SVG Export Plug-In . SVG Version: 6.00 Build 0)  -->
<!DOCTYPE svg PUBLIC "-//W3C//DTD SVG 1.1//EN" "http://www.w3.org/Graphics/SVG/1.1/DTD/svg11.dtd">
<svg version="1.1" id="Layer_1" xmlns="http://www.w3.org/2000/svg" xmlns:xlink="http://www.w3.org/1999/xlink" x="0px" y="0px"
	 width="44.521px" height="40.898px" viewBox="0 0 44.521 40.898" enable-background="new 0 0 44.521 40.898" xml:space="preserve">
<g id="icon_8_">
	<path fill="#FFFFFF" d="M38.277,25.945c0.639,1.418,0.957,2.957,0.934,4.514c0.093,3.213-1.254,6.302-3.667,8.42
		c-0.966,0.83-2.048,1.516-3.212,2.021h12.221V24.11h-7.121L38.277,25.945z"/>
	<path fill="#FFFFFF" d="M39.211,10.441c0.022,1.549-0.297,3.083-0.934,4.494l-0.846,1.836h7.064V0H32.277
		c1.168,0.493,2.252,1.17,3.209,2C37.926,4.118,39.292,7.211,39.211,10.441z"/>
	<path fill="#FFFFFF" d="M26.258,24.164h-9.742v11.01h9.76c2.902,0.137,5.365-2.105,5.505-5.008V29.67
		c0.134-2.9-2.106-5.366-5.009-5.506H26.258z"/>
	<path fill="#FFFFFF" d="M3.672,24.109v-7.338h5.502V0H0v40.898h9.01V24.109H3.672z"/>
	<path fill="#FFFFFF" d="M26.258,5.669h-9.742V16.68h9.76c2.902,0.133,5.365-2.108,5.505-5.011v-0.496
		c0.156-2.884-2.058-5.348-4.94-5.502c-0.01,0-0.021-0.003-0.033-0.003H26.258L26.258,5.669z"/>
</g>
</svg>
