<?xml version="1.0" encoding="utf-8"?>
<!-- Generator: Adobe Illustrator 16.0.0, SVG Export Plug-In . SVG Version: 6.00 Build 0)  -->
<!DOCTYPE svg PUBLIC "-//W3C//DTD SVG 1.1//EN" "http://www.w3.org/Graphics/SVG/1.1/DTD/svg11.dtd">
<svg version="1.1" id="Layer_1" xmlns="http://www.w3.org/2000/svg" xmlns:xlink="http://www.w3.org/1999/xlink" x="0px" y="0px"
	 width="276.042px" height="40.898px" viewBox="0 0 276.042 40.898" enable-background="new 0 0 276.042 40.898"
	 xml:space="preserve">
<g id="icon_8_">
	<path fill="#FEFAF5" d="M38.277,25.945c0.639,1.418,0.957,2.957,0.934,4.514c0.093,3.213-1.254,6.301-3.667,8.42
		c-0.966,0.83-2.048,1.515-3.212,2.021h12.221v-16.79h-7.121L38.277,25.945z"/>
	<path fill="#FEFAF5" d="M39.211,10.441c0.022,1.549-0.297,3.083-0.934,4.494l-0.846,1.836h7.064V0H32.277
		c1.168,0.493,2.252,1.17,3.209,2C37.926,4.118,39.292,7.211,39.211,10.441z"/>
	<path fill="#FEFAF5" d="M26.258,24.164h-9.742v11.01h9.76c2.902,0.136,5.365-2.106,5.505-5.008V29.67
		c0.134-2.901-2.106-5.367-5.009-5.506H26.258z"/>
	<path fill="#FEFAF5" d="M3.672,24.109v-7.338h5.502V0H0v40.898h9.01V24.109H3.672z"/>
	<path fill="#FEFAF5" d="M26.258,5.669h-9.742V16.68h9.76c2.902,0.133,5.365-2.108,5.505-5.01v-0.496
		c0.156-2.884-2.058-5.348-4.94-5.502c-0.01,0-0.021-0.003-0.033-0.003L26.258,5.669L26.258,5.669z"/>
</g>
<g>
	<path fill="#FEFAF5" d="M73.799,32.857h-8.056V7.408h7.835c1.578-0.05,3.156,0.049,4.716,0.292c0.919,0.162,1.788,0.54,2.532,1.101
		c1.597,1.279,2.488,3.241,2.402,5.285c0.105,2.138-1.04,4.143-2.935,5.139c2.64,0.712,4.401,3.197,4.202,5.926
		c-0.015,3.395-2.25,6.377-5.504,7.338c-1.732,0.35-3.502,0.498-5.267,0.441L73.799,32.857z M71.965,13.17v3.927h2.293
		c1.834,0,2.751-0.661,2.751-1.999c0-1.342-0.917-1.928-2.751-1.928H71.965z M71.965,22.51v4.585h3.102
		c2.164,0,3.246-0.788,3.246-2.385s-1.082-2.201-3.246-2.201L71.965,22.51L71.965,22.51z"/>
	<path fill="#FEFAF5" d="M99.34,13.775h5.725v19.083H99.56v-1.945c-0.982,1.832-2.979,2.885-5.046,2.66
		c-2.104,0.076-4.129-0.809-5.505-2.404c-0.693-0.78-1.19-1.719-1.448-2.733c-0.205-1.045-0.291-2.109-0.256-3.172V13.775h5.741
		v10.678c0,2.496,1.01,3.67,3.046,3.67c2.037,0,3.248-1.248,3.248-3.67V13.775z"/>
	<path fill="#FEFAF5" d="M115.523,13.133c1.77-0.091,3.508,0.479,4.879,1.597c1.27,1.122,2.039,2.698,2.148,4.385h-5.506
		c-0.016-0.797-0.67-1.431-1.467-1.431h-0.146c-1.193,0-1.834,0.403-1.834,1.229c0,0.825,0.973,1.561,2.953,2.092
		c1.357,0.326,2.684,0.775,3.964,1.34c0.739,0.405,1.368,0.984,1.835,1.688c0.606,0.869,0.915,1.912,0.881,2.973
		c0.021,1.83-0.83,3.562-2.294,4.66c-1.612,1.265-3.622,1.914-5.671,1.836c-1.926,0.105-3.822-0.496-5.339-1.688
		c-1.361-1.148-2.206-2.793-2.351-4.568h5.689c0,1.014,0.822,1.834,1.836,1.834h0.33c0.497,0,0.98-0.147,1.395-0.42
		c0.35-0.229,0.57-0.613,0.587-1.029c0-0.896-0.733-1.541-2.22-1.834l-3.358-0.883c-2.371-0.654-4.019-2.803-4.035-5.264
		c-0.069-1.838,0.766-3.593,2.238-4.698c1.56-1.244,3.509-1.893,5.503-1.834L115.523,13.133z"/>
	<path fill="#FEFAF5" d="M125.779,7.408h5.726v4.349h-5.726V7.408z M125.779,13.775h5.726v19.083h-5.726V13.775z"/>
	<path fill="#FEFAF5" d="M140.807,32.857h-5.725V13.775h5.505v2.016c1.154-1.74,3.142-2.75,5.229-2.658
		c1.884-0.094,3.728,0.566,5.119,1.835c0.678,0.641,1.192,1.433,1.504,2.313c0.31,1.155,0.442,2.349,0.404,3.542v11.925h-5.814
		V22.288c0-2.641-0.993-3.962-2.975-3.962s-3.063,1.229-3.248,3.67V32.857z"/>
	<path fill="#FEFAF5" d="M168.458,27.242l0.275-0.275h5.797c-0.789,1.943-2.104,3.627-3.797,4.861
		c-1.6,1.16-3.531,1.771-5.506,1.744c-2.684,0.059-5.266-1.014-7.117-2.953c-1.916-1.897-2.971-4.498-2.918-7.193
		c-0.076-2.738,0.973-5.39,2.896-7.34c1.813-1.945,4.369-3.027,7.027-2.972c2.721-0.073,5.338,1.024,7.194,3.009
		c1.905,1.96,2.953,4.604,2.897,7.338c-0.002,0.531-0.053,1.061-0.146,1.58H160.75c0.099,1.002,0.584,1.926,1.361,2.568
		c0.795,0.662,1.807,1.008,2.842,0.973C166.251,28.602,167.505,28.123,168.458,27.242z M160.901,21.371h8.586
		c-0.187-0.956-0.715-1.812-1.485-2.403c-0.806-0.629-1.806-0.952-2.826-0.918c-2.062-0.223-3.937,1.202-4.273,3.247L160.901,21.371
		L160.901,21.371z"/>
	<path fill="#FEFAF5" d="M184.458,13.133c1.769-0.091,3.506,0.479,4.879,1.597c1.273,1.115,2.047,2.695,2.148,4.385h-5.506
		c-0.02-0.797-0.672-1.431-1.467-1.431h-0.166c-1.211,0-1.834,0.403-1.834,1.229c0,0.825,0.992,1.561,2.953,2.092
		c1.359,0.326,2.686,0.775,3.963,1.34c0.738,0.405,1.369,0.984,1.836,1.688c0.605,0.869,0.914,1.912,0.881,2.973
		c0.018,1.82-0.826,3.541-2.277,4.644c-1.611,1.262-3.619,1.912-5.668,1.834c-1.902,0.088-3.77-0.513-5.264-1.688
		c-1.379-1.137-2.252-2.772-2.426-4.551h5.689c0,1.014,0.819,1.834,1.836,1.834h0.385c0.496,0,0.981-0.147,1.393-0.42
		c0.352-0.229,0.572-0.613,0.59-1.029c0-0.896-0.734-1.541-2.223-1.834l-3.357-0.883c-2.371-0.654-4.018-2.803-4.037-5.264
		c-0.078-1.829,0.736-3.581,2.185-4.698c1.562-1.244,3.512-1.893,5.506-1.834L184.458,13.133z"/>
	<path fill="#FEFAF5" d="M201.451,13.133c1.768-0.091,3.506,0.479,4.881,1.597c1.266,1.122,2.039,2.698,2.146,4.385h-5.506
		c-0.021-0.797-0.671-1.431-1.466-1.431h-0.186c-1.191,0-1.834,0.403-1.834,1.229c0,0.825,0.971,1.561,2.953,2.092
		c1.359,0.326,2.684,0.775,3.963,1.34c0.738,0.405,1.369,0.984,1.836,1.688c0.605,0.869,0.914,1.912,0.881,2.973
		c0.016,1.82-0.826,3.541-2.277,4.644c-1.612,1.262-3.62,1.912-5.668,1.834c-1.901,0.088-3.77-0.513-5.268-1.688
		c-1.377-1.135-2.244-2.772-2.402-4.551h5.689c0,1.014,0.82,1.834,1.832,1.834h0.387c0.496,0,0.98-0.147,1.396-0.42
		c0.353-0.229,0.567-0.613,0.586-1.029c0-0.896-0.733-1.541-2.22-1.834l-3.356-0.883c-2.371-0.654-4.021-2.803-4.037-5.264
		c0.003-1.757,0.822-3.413,2.222-4.479c1.561-1.244,3.51-1.894,5.506-1.834L201.451,13.133z"/>
	<path fill="#FEFAF5" d="M237.707,32.857l-1.177-3.781h-8.858l-1.34,3.67h-6.99l10.199-25.449h5.155l10.111,25.449L237.707,32.857z
		 M232.091,15.297l-2.659,8.698h5.264L232.091,15.297z"/>
	<path fill="#FEFAF5" d="M252.348,32.857h-5.945V7.408h8.351l5.045,16.752l5.029-16.752h8.401v25.449h-5.981l0.221-19.12
		l-5.504,19.12h-4.313l-5.506-19.12L252.348,32.857z"/>
</g>
</svg>
